<mxfile host="Electron" agent="Mozilla/5.0 (Macintosh; Intel Mac OS X 10_15_7) AppleWebKit/537.36 (KHTML, like Gecko) draw.io/27.0.9 Chrome/134.0.6998.205 Electron/35.4.0 Safari/537.36" version="27.0.9">
  <diagram name="페이지-1" id="ge7ynudYH0SWpXRpJTb-">
    <mxGraphModel dx="1426" dy="800" grid="1" gridSize="10" guides="1" tooltips="1" connect="1" arrows="1" fold="1" page="1" pageScale="1" pageWidth="827" pageHeight="1169" math="1" shadow="0">
      <root>
        <mxCell id="0" />
        <mxCell id="1" parent="0" />
        <mxCell id="z2jNvW2etzvbWKpsCLM5-1" value="" style="group;rotation=-135;" parent="1" vertex="1" connectable="0">
          <mxGeometry x="170.00395054638602" y="769.0028827345207" width="140" height="120" as="geometry" />
        </mxCell>
        <mxCell id="z2jNvW2etzvbWKpsCLM5-2" value="" style="rounded=0;whiteSpace=wrap;html=1;fillColor=#f8cecc;strokeColor=default;rotation=-135;" parent="z2jNvW2etzvbWKpsCLM5-1" vertex="1">
          <mxGeometry x="41" y="19" width="78.75" height="68.57142857142857" as="geometry" />
        </mxCell>
        <mxCell id="z2jNvW2etzvbWKpsCLM5-3" value="" style="rounded=0;whiteSpace=wrap;html=1;fillColor=#dae8fc;strokeColor=default;rotation=-135;" parent="z2jNvW2etzvbWKpsCLM5-1" vertex="1">
          <mxGeometry x="97" y="15" width="26.25" height="17.142857142857142" as="geometry" />
        </mxCell>
        <mxCell id="z2jNvW2etzvbWKpsCLM5-4" value="" style="rounded=0;whiteSpace=wrap;html=1;fillColor=#dae8fc;strokeColor=default;rotation=-135;" parent="z2jNvW2etzvbWKpsCLM5-1" vertex="1">
          <mxGeometry x="45" y="75" width="8.75" height="17.142857142857142" as="geometry" />
        </mxCell>
        <mxCell id="z2jNvW2etzvbWKpsCLM5-5" value="" style="rounded=0;whiteSpace=wrap;html=1;fillColor=#dae8fc;strokeColor=default;rotation=-135;" parent="z2jNvW2etzvbWKpsCLM5-1" vertex="1">
          <mxGeometry x="-9" y="89" width="96.25" height="8.571428571428571" as="geometry" />
        </mxCell>
        <mxCell id="z2jNvW2etzvbWKpsCLM5-6" value="" style="shape=cylinder3;whiteSpace=wrap;html=1;boundedLbl=1;backgroundOutline=1;size=2.875;direction=south;fillColor=#f8cecc;strokeColor=default;rotation=-135;" parent="z2jNvW2etzvbWKpsCLM5-1" vertex="1">
          <mxGeometry x="-13" y="39" width="21.875" height="25.71428571428571" as="geometry" />
        </mxCell>
        <mxCell id="z2jNvW2etzvbWKpsCLM5-7" value="" style="shape=cylinder3;whiteSpace=wrap;html=1;boundedLbl=1;backgroundOutline=1;size=2.875;direction=south;fillColor=#f8cecc;strokeColor=default;rotation=-135;" parent="z2jNvW2etzvbWKpsCLM5-1" vertex="1">
          <mxGeometry x="71" y="121" width="21.875" height="25.71428571428571" as="geometry" />
        </mxCell>
        <mxCell id="z2jNvW2etzvbWKpsCLM5-8" value="" style="ellipse;whiteSpace=wrap;html=1;fillColor=#e1d5e7;strokeColor=#9673a6;" parent="1" vertex="1">
          <mxGeometry x="364" y="684" width="80" height="75" as="geometry" />
        </mxCell>
        <mxCell id="z2jNvW2etzvbWKpsCLM5-9" value="" style="shape=cylinder3;whiteSpace=wrap;html=1;boundedLbl=1;backgroundOutline=1;size=9.481481481481381;fillColor=#d5e8d4;strokeColor=#82b366;" parent="1" vertex="1">
          <mxGeometry x="444" y="304" width="140" height="90" as="geometry" />
        </mxCell>
        <mxCell id="z2jNvW2etzvbWKpsCLM5-10" value="Goal" style="text;html=1;align=center;verticalAlign=middle;whiteSpace=wrap;rounded=0;fontSize=30;fontColor=#B9E0A5;fontStyle=1" parent="1" vertex="1">
          <mxGeometry x="484" y="264" width="76" height="30" as="geometry" />
        </mxCell>
        <mxCell id="z2jNvW2etzvbWKpsCLM5-11" value="&lt;font style=&quot;color: rgb(234, 107, 102);&quot;&gt;Agent&lt;/font&gt;" style="text;html=1;align=center;verticalAlign=middle;whiteSpace=wrap;rounded=0;fontSize=30;fontColor=#B9E0A5;fontStyle=1" parent="1" vertex="1">
          <mxGeometry x="80" y="784" width="90" height="30" as="geometry" />
        </mxCell>
        <mxCell id="z2jNvW2etzvbWKpsCLM5-12" value="&lt;font style=&quot;color: rgb(181, 115, 157);&quot;&gt;Hazard&lt;/font&gt;" style="text;html=1;align=center;verticalAlign=middle;whiteSpace=wrap;rounded=0;fontSize=30;fontColor=#B9E0A5;fontStyle=1" parent="1" vertex="1">
          <mxGeometry x="384" y="644" width="106" height="30" as="geometry" />
        </mxCell>
        <mxCell id="z2jNvW2etzvbWKpsCLM5-13" value="" style="ellipse;whiteSpace=wrap;html=1;fillColor=#e1d5e7;strokeColor=#9673a6;" parent="1" vertex="1">
          <mxGeometry x="190" y="569" width="80" height="75" as="geometry" />
        </mxCell>
        <mxCell id="z2jNvW2etzvbWKpsCLM5-14" value="" style="group;rotation=-150;opacity=23;" parent="1" vertex="1" connectable="0">
          <mxGeometry x="289.9960145752998" y="660.0022762685365" width="140" height="120" as="geometry" />
        </mxCell>
        <mxCell id="z2jNvW2etzvbWKpsCLM5-15" value="" style="rounded=0;whiteSpace=wrap;html=1;fillColor=#f8cecc;strokeColor=default;rotation=-150;" parent="z2jNvW2etzvbWKpsCLM5-14" vertex="1">
          <mxGeometry x="39" y="17" width="78.75" height="68.57142857142857" as="geometry" />
        </mxCell>
        <mxCell id="z2jNvW2etzvbWKpsCLM5-16" value="" style="rounded=0;whiteSpace=wrap;html=1;fillColor=#dae8fc;strokeColor=default;rotation=-150;" parent="z2jNvW2etzvbWKpsCLM5-14" vertex="1">
          <mxGeometry x="87" y="6" width="26.25" height="17.142857142857142" as="geometry" />
        </mxCell>
        <mxCell id="z2jNvW2etzvbWKpsCLM5-17" value="" style="rounded=0;whiteSpace=wrap;html=1;fillColor=#dae8fc;strokeColor=default;rotation=-150;" parent="z2jNvW2etzvbWKpsCLM5-14" vertex="1">
          <mxGeometry x="52" y="80" width="8.75" height="17.142857142857142" as="geometry" />
        </mxCell>
        <mxCell id="z2jNvW2etzvbWKpsCLM5-18" value="" style="rounded=0;whiteSpace=wrap;html=1;fillColor=#dae8fc;strokeColor=default;rotation=-150;" parent="z2jNvW2etzvbWKpsCLM5-14" vertex="1">
          <mxGeometry x="1" y="96" width="96.25" height="8.571428571428571" as="geometry" />
        </mxCell>
        <mxCell id="z2jNvW2etzvbWKpsCLM5-19" value="" style="shape=cylinder3;whiteSpace=wrap;html=1;boundedLbl=1;backgroundOutline=1;size=2.875;direction=south;fillColor=#f8cecc;strokeColor=default;rotation=-150;" parent="z2jNvW2etzvbWKpsCLM5-14" vertex="1">
          <mxGeometry x="-13" y="58" width="21.875" height="25.71428571428571" as="geometry" />
        </mxCell>
        <mxCell id="z2jNvW2etzvbWKpsCLM5-20" value="" style="shape=cylinder3;whiteSpace=wrap;html=1;boundedLbl=1;backgroundOutline=1;size=2.875;direction=south;fillColor=#f8cecc;strokeColor=default;rotation=-150;" parent="z2jNvW2etzvbWKpsCLM5-14" vertex="1">
          <mxGeometry x="89" y="116" width="21.875" height="25.71428571428571" as="geometry" />
        </mxCell>
        <mxCell id="z2jNvW2etzvbWKpsCLM5-21" value="" style="group;rotation=-165;opacity=23;" parent="1" vertex="1" connectable="0">
          <mxGeometry x="350.0017782649107" y="504.0015242270663" width="140" height="120" as="geometry" />
        </mxCell>
        <mxCell id="z2jNvW2etzvbWKpsCLM5-22" value="" style="rounded=0;whiteSpace=wrap;html=1;fillColor=#f8cecc;strokeColor=default;rotation=-165;" parent="z2jNvW2etzvbWKpsCLM5-21" vertex="1">
          <mxGeometry x="36" y="15" width="78.75" height="68.57142857142857" as="geometry" />
        </mxCell>
        <mxCell id="z2jNvW2etzvbWKpsCLM5-23" value="" style="rounded=0;whiteSpace=wrap;html=1;fillColor=#dae8fc;strokeColor=default;rotation=-165;" parent="z2jNvW2etzvbWKpsCLM5-21" vertex="1">
          <mxGeometry x="74" width="26.25" height="17.142857142857142" as="geometry" />
        </mxCell>
        <mxCell id="z2jNvW2etzvbWKpsCLM5-24" value="" style="rounded=0;whiteSpace=wrap;html=1;fillColor=#dae8fc;strokeColor=default;rotation=-165;" parent="z2jNvW2etzvbWKpsCLM5-21" vertex="1">
          <mxGeometry x="60" y="83" width="8.75" height="17.142857142857142" as="geometry" />
        </mxCell>
        <mxCell id="z2jNvW2etzvbWKpsCLM5-25" value="" style="rounded=0;whiteSpace=wrap;html=1;fillColor=#dae8fc;strokeColor=default;rotation=-165;" parent="z2jNvW2etzvbWKpsCLM5-21" vertex="1">
          <mxGeometry x="12" y="100" width="96.25" height="8.571428571428571" as="geometry" />
        </mxCell>
        <mxCell id="z2jNvW2etzvbWKpsCLM5-26" value="" style="shape=cylinder3;whiteSpace=wrap;html=1;boundedLbl=1;backgroundOutline=1;size=2.875;direction=south;fillColor=#f8cecc;strokeColor=default;rotation=-165;" parent="z2jNvW2etzvbWKpsCLM5-21" vertex="1">
          <mxGeometry x="-8" y="76" width="21.875" height="25.71428571428571" as="geometry" />
        </mxCell>
        <mxCell id="z2jNvW2etzvbWKpsCLM5-27" value="" style="shape=cylinder3;whiteSpace=wrap;html=1;boundedLbl=1;backgroundOutline=1;size=2.875;direction=south;fillColor=#f8cecc;strokeColor=default;rotation=-165;" parent="z2jNvW2etzvbWKpsCLM5-21" vertex="1">
          <mxGeometry x="106" y="106" width="21.875" height="25.71428571428571" as="geometry" />
        </mxCell>
        <mxCell id="z2jNvW2etzvbWKpsCLM5-28" value="" style="group;rotation=-150;opacity=23;" parent="1" vertex="1" connectable="0">
          <mxGeometry x="390.0039505463859" y="364.00288273452054" width="140" height="120" as="geometry" />
        </mxCell>
        <mxCell id="z2jNvW2etzvbWKpsCLM5-29" value="" style="rounded=0;whiteSpace=wrap;html=1;fillColor=#f8cecc;strokeColor=default;rotation=-150;" parent="z2jNvW2etzvbWKpsCLM5-28" vertex="1">
          <mxGeometry x="39" y="17" width="78.75" height="68.57142857142857" as="geometry" />
        </mxCell>
        <mxCell id="z2jNvW2etzvbWKpsCLM5-30" value="" style="rounded=0;whiteSpace=wrap;html=1;fillColor=#dae8fc;strokeColor=default;rotation=-150;" parent="z2jNvW2etzvbWKpsCLM5-28" vertex="1">
          <mxGeometry x="87" y="6" width="26.25" height="17.142857142857142" as="geometry" />
        </mxCell>
        <mxCell id="z2jNvW2etzvbWKpsCLM5-31" value="" style="rounded=0;whiteSpace=wrap;html=1;fillColor=#dae8fc;strokeColor=default;rotation=-150;" parent="z2jNvW2etzvbWKpsCLM5-28" vertex="1">
          <mxGeometry x="52" y="80" width="8.75" height="17.142857142857142" as="geometry" />
        </mxCell>
        <mxCell id="z2jNvW2etzvbWKpsCLM5-32" value="" style="rounded=0;whiteSpace=wrap;html=1;fillColor=#dae8fc;strokeColor=default;rotation=-150;" parent="z2jNvW2etzvbWKpsCLM5-28" vertex="1">
          <mxGeometry x="1" y="96" width="96.25" height="8.571428571428571" as="geometry" />
        </mxCell>
        <mxCell id="z2jNvW2etzvbWKpsCLM5-33" value="" style="shape=cylinder3;whiteSpace=wrap;html=1;boundedLbl=1;backgroundOutline=1;size=2.875;direction=south;fillColor=#f8cecc;strokeColor=default;rotation=-150;" parent="z2jNvW2etzvbWKpsCLM5-28" vertex="1">
          <mxGeometry x="-13" y="58" width="21.875" height="25.71428571428571" as="geometry" />
        </mxCell>
        <mxCell id="z2jNvW2etzvbWKpsCLM5-34" value="" style="shape=cylinder3;whiteSpace=wrap;html=1;boundedLbl=1;backgroundOutline=1;size=2.875;direction=south;fillColor=#f8cecc;strokeColor=default;rotation=-150;" parent="z2jNvW2etzvbWKpsCLM5-28" vertex="1">
          <mxGeometry x="89" y="116" width="21.875" height="25.71428571428571" as="geometry" />
        </mxCell>
        <mxCell id="z2jNvW2etzvbWKpsCLM5-35" value="" style="group;rotation=-130;" parent="1" vertex="1" connectable="0">
          <mxGeometry x="429.99601457529985" y="784.0022762685365" width="140" height="120" as="geometry" />
        </mxCell>
        <mxCell id="z2jNvW2etzvbWKpsCLM5-36" value="" style="rounded=0;whiteSpace=wrap;html=1;fillColor=#f8cecc;strokeColor=default;rotation=-130;" parent="z2jNvW2etzvbWKpsCLM5-35" vertex="1">
          <mxGeometry x="41" y="20" width="78.75" height="68.57142857142857" as="geometry" />
        </mxCell>
        <mxCell id="z2jNvW2etzvbWKpsCLM5-37" value="" style="rounded=0;whiteSpace=wrap;html=1;fillColor=#dae8fc;strokeColor=default;rotation=-130;" parent="z2jNvW2etzvbWKpsCLM5-35" vertex="1">
          <mxGeometry x="100" y="20" width="26.25" height="17.142857142857142" as="geometry" />
        </mxCell>
        <mxCell id="z2jNvW2etzvbWKpsCLM5-38" value="" style="rounded=0;whiteSpace=wrap;html=1;fillColor=#dae8fc;strokeColor=default;rotation=-130;" parent="z2jNvW2etzvbWKpsCLM5-35" vertex="1">
          <mxGeometry x="43" y="74" width="8.75" height="17.142857142857142" as="geometry" />
        </mxCell>
        <mxCell id="z2jNvW2etzvbWKpsCLM5-39" value="" style="rounded=0;whiteSpace=wrap;html=1;fillColor=#dae8fc;strokeColor=default;rotation=-130;" parent="z2jNvW2etzvbWKpsCLM5-35" vertex="1">
          <mxGeometry x="-12" y="86" width="96.25" height="8.571428571428571" as="geometry" />
        </mxCell>
        <mxCell id="z2jNvW2etzvbWKpsCLM5-40" value="" style="shape=cylinder3;whiteSpace=wrap;html=1;boundedLbl=1;backgroundOutline=1;size=2.875;direction=south;fillColor=#f8cecc;strokeColor=default;rotation=-130;" parent="z2jNvW2etzvbWKpsCLM5-35" vertex="1">
          <mxGeometry x="-12" y="33" width="21.875" height="25.71428571428571" as="geometry" />
        </mxCell>
        <mxCell id="z2jNvW2etzvbWKpsCLM5-41" value="" style="shape=cylinder3;whiteSpace=wrap;html=1;boundedLbl=1;backgroundOutline=1;size=2.875;direction=south;fillColor=#f8cecc;strokeColor=default;rotation=-130;" parent="z2jNvW2etzvbWKpsCLM5-35" vertex="1">
          <mxGeometry x="64" y="121" width="21.875" height="25.71428571428571" as="geometry" />
        </mxCell>
        <mxCell id="z2jNvW2etzvbWKpsCLM5-43" value="" style="group;rotation=-170;" parent="1" vertex="1" connectable="0">
          <mxGeometry x="560.9977992651964" y="584.0003675995208" width="140" height="120" as="geometry" />
        </mxCell>
        <mxCell id="z2jNvW2etzvbWKpsCLM5-44" value="" style="rounded=0;whiteSpace=wrap;html=1;fillColor=#f8cecc;strokeColor=default;rotation=-170;" parent="z2jNvW2etzvbWKpsCLM5-43" vertex="1">
          <mxGeometry x="35" y="15" width="78.75" height="68.57142857142857" as="geometry" />
        </mxCell>
        <mxCell id="z2jNvW2etzvbWKpsCLM5-45" value="" style="rounded=0;whiteSpace=wrap;html=1;fillColor=#dae8fc;strokeColor=default;rotation=-170;" parent="z2jNvW2etzvbWKpsCLM5-43" vertex="1">
          <mxGeometry x="70" width="26.25" height="17.142857142857142" as="geometry" />
        </mxCell>
        <mxCell id="z2jNvW2etzvbWKpsCLM5-46" value="" style="rounded=0;whiteSpace=wrap;html=1;fillColor=#dae8fc;strokeColor=default;rotation=-170;" parent="z2jNvW2etzvbWKpsCLM5-43" vertex="1">
          <mxGeometry x="62" y="83" width="8.75" height="17.142857142857142" as="geometry" />
        </mxCell>
        <mxCell id="z2jNvW2etzvbWKpsCLM5-47" value="" style="rounded=0;whiteSpace=wrap;html=1;fillColor=#dae8fc;strokeColor=default;rotation=-170;" parent="z2jNvW2etzvbWKpsCLM5-43" vertex="1">
          <mxGeometry x="15" y="101" width="96.25" height="8.571428571428571" as="geometry" />
        </mxCell>
        <mxCell id="z2jNvW2etzvbWKpsCLM5-48" value="" style="shape=cylinder3;whiteSpace=wrap;html=1;boundedLbl=1;backgroundOutline=1;size=2.875;direction=south;fillColor=#f8cecc;strokeColor=default;rotation=-170;" parent="z2jNvW2etzvbWKpsCLM5-43" vertex="1">
          <mxGeometry x="-4" y="82" width="21.875" height="25.71428571428571" as="geometry" />
        </mxCell>
        <mxCell id="z2jNvW2etzvbWKpsCLM5-49" value="" style="shape=cylinder3;whiteSpace=wrap;html=1;boundedLbl=1;backgroundOutline=1;size=2.875;direction=south;fillColor=#f8cecc;strokeColor=default;rotation=-170;" parent="z2jNvW2etzvbWKpsCLM5-43" vertex="1">
          <mxGeometry x="110" y="101" width="21.875" height="25.71428571428571" as="geometry" />
        </mxCell>
        <mxCell id="z2jNvW2etzvbWKpsCLM5-50" value="" style="group;rotation=-210;" parent="1" vertex="1" connectable="0">
          <mxGeometry x="559.9954333708704" y="384.00383761741773" width="140" height="120" as="geometry" />
        </mxCell>
        <mxCell id="z2jNvW2etzvbWKpsCLM5-51" value="" style="rounded=0;whiteSpace=wrap;html=1;fillColor=#f8cecc;strokeColor=default;rotation=-210;" parent="z2jNvW2etzvbWKpsCLM5-50" vertex="1">
          <mxGeometry x="27" y="15" width="78.75" height="68.57142857142857" as="geometry" />
        </mxCell>
        <mxCell id="z2jNvW2etzvbWKpsCLM5-52" value="" style="rounded=0;whiteSpace=wrap;html=1;fillColor=#dae8fc;strokeColor=default;rotation=-210;" parent="z2jNvW2etzvbWKpsCLM5-50" vertex="1">
          <mxGeometry x="34" y="3" width="26.25" height="17.142857142857142" as="geometry" />
        </mxCell>
        <mxCell id="z2jNvW2etzvbWKpsCLM5-53" value="" style="rounded=0;whiteSpace=wrap;html=1;fillColor=#dae8fc;strokeColor=default;rotation=-210;" parent="z2jNvW2etzvbWKpsCLM5-50" vertex="1">
          <mxGeometry x="84" y="78" width="8.75" height="17.142857142857142" as="geometry" />
        </mxCell>
        <mxCell id="z2jNvW2etzvbWKpsCLM5-54" value="" style="rounded=0;whiteSpace=wrap;html=1;fillColor=#dae8fc;strokeColor=default;rotation=-210;" parent="z2jNvW2etzvbWKpsCLM5-50" vertex="1">
          <mxGeometry x="46" y="95" width="96.25" height="8.571428571428571" as="geometry" />
        </mxCell>
        <mxCell id="z2jNvW2etzvbWKpsCLM5-55" value="" style="shape=cylinder3;whiteSpace=wrap;html=1;boundedLbl=1;backgroundOutline=1;size=2.875;direction=south;fillColor=#f8cecc;strokeColor=default;rotation=-210;" parent="z2jNvW2etzvbWKpsCLM5-50" vertex="1">
          <mxGeometry x="33" y="114" width="21.875" height="25.71428571428571" as="geometry" />
        </mxCell>
        <mxCell id="z2jNvW2etzvbWKpsCLM5-56" value="" style="shape=cylinder3;whiteSpace=wrap;html=1;boundedLbl=1;backgroundOutline=1;size=2.875;direction=south;fillColor=#f8cecc;strokeColor=default;rotation=-210;" parent="z2jNvW2etzvbWKpsCLM5-50" vertex="1">
          <mxGeometry x="133" y="55" width="21.875" height="25.71428571428571" as="geometry" />
        </mxCell>
        <mxCell id="z2jNvW2etzvbWKpsCLM5-60" value="" style="curved=1;endArrow=classic;html=1;rounded=0;exitX=0.5;exitY=1;exitDx=0;exitDy=0;entryX=0.5;entryY=1;entryDx=0;entryDy=0;" parent="1" source="z2jNvW2etzvbWKpsCLM5-39" target="z2jNvW2etzvbWKpsCLM5-52" edge="1">
          <mxGeometry width="50" height="50" relative="1" as="geometry">
            <mxPoint x="584" y="794" as="sourcePoint" />
            <mxPoint x="634" y="744" as="targetPoint" />
            <Array as="points">
              <mxPoint x="570" y="794" />
              <mxPoint x="620" y="734" />
              <mxPoint x="640" y="594" />
              <mxPoint x="650" y="544" />
              <mxPoint x="670" y="494" />
            </Array>
          </mxGeometry>
        </mxCell>
        <mxCell id="z2jNvW2etzvbWKpsCLM5-64" value="`\alpha=3`" style="text;html=1;align=center;verticalAlign=middle;whiteSpace=wrap;rounded=0;fontSize=30;" parent="1" vertex="1">
          <mxGeometry x="250" y="504" width="100" height="30" as="geometry" />
        </mxCell>
        <mxCell id="z2jNvW2etzvbWKpsCLM5-65" style="edgeStyle=orthogonalEdgeStyle;rounded=0;orthogonalLoop=1;jettySize=auto;html=1;exitX=0.5;exitY=1;exitDx=0;exitDy=0;" parent="1" source="z2jNvW2etzvbWKpsCLM5-64" target="z2jNvW2etzvbWKpsCLM5-64" edge="1">
          <mxGeometry relative="1" as="geometry" />
        </mxCell>
        <mxCell id="z2jNvW2etzvbWKpsCLM5-66" value="`\alpha=12`" style="text;html=1;align=center;verticalAlign=middle;whiteSpace=wrap;rounded=0;fontSize=30;" parent="1" vertex="1">
          <mxGeometry x="627" y="769" width="120" height="30" as="geometry" />
        </mxCell>
        <mxCell id="z2jNvW2etzvbWKpsCLM5-68" value="&lt;font style=&quot;color: rgb(0, 0, 0);&quot;&gt;RL&lt;/font&gt;" style="text;html=1;align=center;verticalAlign=middle;whiteSpace=wrap;rounded=0;fontSize=30;fontColor=#B9E0A5;fontStyle=1" parent="1" vertex="1">
          <mxGeometry x="350" y="160" width="76" height="30" as="geometry" />
        </mxCell>
        <mxCell id="z2jNvW2etzvbWKpsCLM5-72" value="" style="curved=1;endArrow=classic;html=1;rounded=0;exitX=0.5;exitY=1;exitDx=0;exitDy=0;entryX=0.5;entryY=1;entryDx=0;entryDy=0;" parent="1" source="z2jNvW2etzvbWKpsCLM5-5" target="z2jNvW2etzvbWKpsCLM5-30" edge="1">
          <mxGeometry width="50" height="50" relative="1" as="geometry">
            <mxPoint x="160" y="630" as="sourcePoint" />
            <mxPoint x="210" y="580" as="targetPoint" />
            <Array as="points">
              <mxPoint x="310" y="770" />
              <mxPoint x="350" y="750" />
              <mxPoint x="360" y="720" />
              <mxPoint x="410" y="650" />
              <mxPoint x="410" y="600" />
              <mxPoint x="440" y="520" />
              <mxPoint x="430" y="490" />
              <mxPoint x="450" y="440" />
            </Array>
          </mxGeometry>
        </mxCell>
      </root>
    </mxGraphModel>
  </diagram>
</mxfile>
